# xmcd
#
# Track frame offsets:
#	150
#	11515
#	23716
#	34183
#	45352
#	55095
#	64377
#	75003
#	84973
#	94964
#	105966
#	115524
#	125741
#	137100
#
# Disc length: 1963 seconds
#
# Revision: 3
# Processed by: cddbd v1.5.2PL0 Copyright (c) Steve Scherf et al.
# Submitted via: EasyCDDAExtractor 10.0.2.1
#
DISCID=a007a90e
DTITLE=Buck Owens - Open Up Your Heart
DYEAR=1995
DGENRE=Country
TTITLE0=Open Up Your Heart
TTITLE1=Congratulations, You're Absolutely Right
TTITLE2=Think Of Me
TTITLE3=In The Palm Of Your Hand
TTITLE4=You, You, Only You
TTITLE5=Sam's Place
TTITLE6=Waitin' In Your Welfare Line
TTITLE7=A Devil Like Me (Needs An Angel Like You)
TTITLE8=Heart Of Glass
TTITLE9=Cadillac Lane
TTITLE10=No More Me And You
TTITLE11=GoodBye, Good Luck, God Bless You
TTITLE12=Open Up Your Heart (Single Version)
TTITLE13=Think Of Me (Single Version)
EXTD=Buck Owens and his Buckaroos - Open Up Your Heart\nAll tracks recorded at
EXTD=Capitol Recording Studios, Hollywood CA\nOriginally released as Capitol 
EXTD=LP#ST 2640 on December 27 ,1966
EXTT0=
EXTT1=
EXTT2=
EXTT3=
EXTT4=
EXTT5=
EXTT6=
EXTT7=
EXTT8=
EXTT9=
EXTT10=
EXTT11=
EXTT12=
EXTT13=
PLAYORDER=
